#!OML:ASF C:\Vicon Data\Big\jianyuan-13\jianyuan\Session 1\Capture.male.ASF
:FULLY-SPECIFIED
:DEGREES
167
root -7.044837 17.715356 -4.511555 9.748290 -0.411349 3.683823
lowerback -11.505338 1.388879 -3.142159 
upperback 0.688274 2.369395 -1.181423 
thorax 7.117432 1.061924 0.935226 
lowerneck -2.490017 -0.988101 2.709026 
upperneck 0.435812 -1.358171 -3.746168 
head 0.508347 -0.703754 -1.635264 
rclavicle 0.000000 0.000000 
rhumerus -41.358755 -15.728433 -81.419734 
rradius 31.151943 
rwrist 26.811629 
rhand -18.318927 -19.632191 
rfingers 0.000000 
rthumb 7.962513 -49.462176 
lclavicle 0.000000 0.000000 
lhumerus -37.597782 36.692385 71.354281 
lradius 24.711939 
lwrist -59.308120 
lhand -21.455562 2.807273 
lfingers 0.000000 
lthumb 4.934482 32.729779 
rfemur -36.754638 -10.969035 13.008505 
rtibia 92.128972 
rfoot -0.641057 -1.504729 
rtoes -37.483786 
lfemur -25.654215 -0.759457 -28.335710 
ltibia 29.866769 
lfoot -9.315774 1.335480 
ltoes -23.405747 
168
root -7.031058 17.713897 -4.448686 9.755399 -0.367307 3.702050
lowerback -11.441674 1.274299 -3.140773 
upperback 0.689290 2.212560 -1.162534 
thorax 7.087252 0.985635 0.925703 
lowerneck -2.499749 -0.927099 2.758478 
upperneck 0.449121 -1.277223 -3.829761 
head 0.516463 -0.663996 -1.670226 
rclavicle 0.000000 0.000000 
rhumerus -41.708865 -15.575308 -81.359697 
rradius 31.317386 
rwrist 26.739859 
rhand -18.228139 -19.367095 
rfingers 0.000000 
rthumb 8.050139 -49.193767 
lclavicle 0.000000 0.000000 
lhumerus -36.644747 36.239178 72.320605 
lradius 24.888365 
lwrist -58.699280 
lhand -21.444809 2.811503 
lfingers 0.000000 
lthumb 4.944884 32.733835 
rfemur -38.185471 -11.233107 13.120229 
rtibia 93.024535 
rfoot -0.742317 -1.020840 
rtoes -38.606044 
lfemur -25.445333 -0.604923 -28.410029 
ltibia 29.903770 
lfoot -9.425837 1.072548 
ltoes -22.944529 
169
root -7.021833 17.716916 -4.385119 9.710307 -0.326969 3.713173
lowerback -11.353347 1.145570 -3.204243 
upperback 0.716844 2.043515 -1.116807 
thorax 7.068786 0.899968 0.978819 
lowerneck -2.471234 -0.851104 2.751821 
upperneck 0.426383 -1.175164 -3.867766 
head 0.508057 -0.612957 -1.679812 
rclavicle 0.000000 0.000000 
rhumerus -41.959194 -15.199672 -81.436947 
rradius 31.456002 
rwrist 26.422743 
rhand -18.134577 -19.350088 
rfingers 0.000000 
rthumb 8.140452 -49.173302 
lclavicle 0.000000 0.000000 
lhumerus -35.748202 35.938875 73.148593 
lradius 25.057131 
lwrist -58.290122 
lhand -21.532541 2.781511 
lfingers 0.000000 
lthumb 4.860156 32.705742 
rfemur -39.449877 -11.379347 13.222364 
rtibia 93.822501 
rfoot -0.953266 -0.524943 
rtoes -38.386133 
lfemur -25.154933 -0.363301 -28.487938 
ltibia 29.910577 
lfoot -9.486990 0.779196 
ltoes -23.165438 
170
root -7.011962 17.721602 -4.321140 9.617737 -0.300437 3.776176
lowerback -11.200727 1.046324 -3.318491 
upperback 0.740232 1.918841 -1.088889 
thorax 7.007179 0.835238 1.047771 
lowerneck -2.400532 -0.799977 2.771018 
upperneck 0.369985 -1.106923 -3.923660 
head 0.480719 -0.578365 -1.699508 
rclavicle 0.000000 0.000000 
rhumerus -42.223812 -14.838750 -81.564317 
rradius 31.717240 
rwrist 25.847765 
rhand -17.950130 -19.551588 
rfingers 0.000000 
rthumb 8.318486 -49.367745 
lclavicle 0.000000 0.000000 
lhumerus -34.812606 35.483459 74.038144 
lradius 25.194976 
lwrist -57.794705 
lhand -21.639384 2.735058 
lfingers 0.000000 
lthumb 4.756987 32.661673 
rfemur -40.679061 -11.525982 13.253879 
rtibia 94.593660 
rfoot -1.189402 -0.266716 
rtoes -38.902662 
lfemur -24.785547 -0.116163 -28.631715 
ltibia 29.881618 
lfoot -9.596234 0.569150 
ltoes -23.737837 
